<svg width="15" height="15" viewBox="0 0 15 15" fill="none" xmlns="http://www.w3.org/2000/svg">
<g clip-path="url(#clip0_2_99)">
<path d="M0 2.00106C0 1.51842 0.168924 1.12026 0.506757 0.806558C0.84459 0.492847 1.28379 0.335999 1.82432 0.335999C2.35522 0.335999 2.78474 0.490429 3.11293 0.799319C3.45077 1.11785 3.61969 1.5329 3.61969 2.04449C3.61969 2.50781 3.4556 2.8939 3.12741 3.20279C2.78958 3.52133 2.34556 3.68059 1.79537 3.68059H1.78089C1.25 3.68059 0.820468 3.52133 0.492278 3.20279C0.164088 2.88426 0 2.48368 0 2.00106ZM0.188224 14.67V4.99816H3.40251V14.67H0.188224ZM5.1834 14.67H8.39768V9.2694C8.39768 8.93155 8.4363 8.67093 8.51351 8.48754C8.64864 8.15935 8.85376 7.88184 9.12886 7.65501C9.40396 7.42817 9.74903 7.31476 10.1641 7.31476C11.2452 7.31476 11.7857 8.04352 11.7857 9.50106V14.67H15V9.12461C15 7.69603 14.6622 6.61254 13.9865 5.87413C13.3108 5.13571 12.418 4.7665 11.3079 4.7665C10.0627 4.7665 9.09266 5.30221 8.39768 6.37364V6.4026H8.3832L8.39768 6.37364V4.99816H5.1834C5.2027 5.30704 5.21236 6.26746 5.21236 7.87943C5.21236 9.4914 5.2027 11.7549 5.1834 14.67Z" fill="#F6F5F5"/>
</g>
<defs>
<clipPath id="clip0_2_99">
<rect width="15" height="15" fill="white"/>
</clipPath>
</defs>
</svg>
