<svg width="16" height="16" viewBox="0 0 16 16" fill="none" xmlns="http://www.w3.org/2000/svg">
<path d="M15.6704 4.15288C15.4859 3.46755 14.9456 2.92719 14.2602 2.74268C13.0082 2.40001 7.99997 2.40001 7.99997 2.40001C7.99997 2.40001 2.99175 2.40001 1.7397 2.7295C1.06754 2.91401 0.514001 3.46755 0.329488 4.15288C0 5.40494 0 8.0013 0 8.0013C0 8.0013 0 10.6108 0.329488 11.8497C0.514001 12.5351 1.05436 13.0754 1.7397 13.2599C3.00493 13.6026 7.99997 13.6026 7.99997 13.6026C7.99997 13.6026 13.0082 13.6026 14.2602 13.2731C14.9456 13.0886 15.4859 12.5482 15.6704 11.8629C15.9999 10.6108 15.9999 8.01448 15.9999 8.01448C15.9999 8.01448 16.0131 5.40494 15.6704 4.15288Z" fill="#F6F5F5"/>
<path d="M6.40524 10.4L10.57 8.0013L6.40524 5.60263V10.4Z" fill="#7DAFC4"/>
</svg>
